<?xml version="1.0" encoding="UTF-8" standalone="no"?>
<!DOCTYPE svg PUBLIC "-//W3C//DTD SVG 1.1//EN"
 "http://www.w3.org/Graphics/SVG/1.1/DTD/svg11.dtd">
<!-- Generated by graphviz version 2.26.3 (20100126.1600)
 -->
<!-- Title: G Pages: 1 -->
<svg width="126pt" height="228pt"
 viewBox="0.00 0.00 126.00 228.00" xmlns="http://www.w3.org/2000/svg" xmlns:xlink="http://www.w3.org/1999/xlink">
<g id="graph1" class="graph" transform="scale(1 1) rotate(0) translate(4 224)">
<title>G</title>
<polygon fill="white" stroke="white" points="-4,5 -4,-224 123,-224 123,5 -4,5"/>
<g id="graph2" class="cluster"><title>cluster_Global</title>
<polyline fill="none" stroke="gray" points="20,-8 98,-8 "/>
<path fill="none" stroke="gray" d="M98,-8C104,-8 110,-14 110,-20"/>
<polyline fill="none" stroke="gray" points="110,-20 110,-200 "/>
<path fill="none" stroke="gray" d="M110,-200C110,-206 104,-212 98,-212"/>
<polyline fill="none" stroke="gray" points="98,-212 20,-212 "/>
<path fill="none" stroke="gray" d="M20,-212C14,-212 8,-206 8,-200"/>
<polyline fill="none" stroke="gray" points="8,-200 8,-20 "/>
<path fill="none" stroke="gray" d="M8,-20C8,-14 14,-8 20,-8"/>
<text text-anchor="middle" x="59" y="-198.1" font-family="Times Roman,serif" font-size="11.00" fill="gray">Global</text>
</g>
<g id="graph3" class="cluster"><title>cluster_\Chadicus</title>
<polyline fill="none" stroke="gray" points="28,-16 90,-16 "/>
<path fill="none" stroke="gray" d="M90,-16C96,-16 102,-22 102,-28"/>
<polyline fill="none" stroke="gray" points="102,-28 102,-170 "/>
<path fill="none" stroke="gray" d="M102,-170C102,-176 96,-182 90,-182"/>
<polyline fill="none" stroke="gray" points="90,-182 28,-182 "/>
<path fill="none" stroke="gray" d="M28,-182C22,-182 16,-176 16,-170"/>
<polyline fill="none" stroke="gray" points="16,-170 16,-28 "/>
<path fill="none" stroke="gray" d="M16,-28C16,-22 22,-16 28,-16"/>
<text text-anchor="middle" x="59" y="-168.1" font-family="Times Roman,serif" font-size="11.00" fill="gray">Chadicus</text>
</g>
<g id="graph4" class="cluster"><title>cluster_\Chadicus\Primaids</title>
<polyline fill="none" stroke="gray" points="36,-24 82,-24 "/>
<path fill="none" stroke="gray" d="M82,-24C88,-24 94,-30 94,-36"/>
<polyline fill="none" stroke="gray" points="94,-36 94,-140 "/>
<path fill="none" stroke="gray" d="M94,-140C94,-146 88,-152 82,-152"/>
<polyline fill="none" stroke="gray" points="82,-152 36,-152 "/>
<path fill="none" stroke="gray" d="M36,-152C30,-152 24,-146 24,-140"/>
<polyline fill="none" stroke="gray" points="24,-140 24,-36 "/>
<path fill="none" stroke="gray" d="M24,-36C24,-30 30,-24 36,-24"/>
<text text-anchor="middle" x="59" y="-138.1" font-family="Times Roman,serif" font-size="11.00" fill="gray">Primaids</text>
</g>
<!-- \\Chadicus\\Primaids\\Arrays -->
<g id="node4" class="node"><title>\\Chadicus\\Primaids\\Arrays</title>
<polygon fill="none" stroke="black" points="86,-122 32,-122 32,-86 86,-86 86,-122"/>
<text text-anchor="middle" x="59" y="-101.1" font-family="Times Roman,serif" font-size="11.00">Arrays</text>
</g>
<!-- \\Chadicus\\Primaids\\String -->
<g id="node5" class="node"><title>\\Chadicus\\Primaids\\String</title>
<polygon fill="none" stroke="black" points="86,-68 32,-68 32,-32 86,-32 86,-68"/>
<text text-anchor="middle" x="59" y="-47.1" font-family="Times Roman,serif" font-size="11.00">String</text>
</g>
</g>
</svg>
